<mxfile host="app.diagrams.net" agent="Mozilla/5.0 (Macintosh; Intel Mac OS X 10.15; rv:138.0) Gecko/20100101 Firefox/138.0" version="27.0.9">
  <diagram name="Seite-1" id="SihNaje8-9wR3qkRNZR8">
    <mxGraphModel dx="1323" dy="3367" grid="1" gridSize="10" guides="1" tooltips="1" connect="1" arrows="1" fold="1" page="0" pageScale="1" pageWidth="827" pageHeight="1169" math="0" shadow="0">
      <root>
        <mxCell id="0" />
        <mxCell id="1" parent="0" />
        <mxCell id="0sXUpPCCLZXKDz9Lb9Dr-93" value="" style="whiteSpace=wrap;html=1;" vertex="1" parent="1">
          <mxGeometry x="1589.9399999999996" y="70" width="240" height="160" as="geometry" />
        </mxCell>
        <mxCell id="0sXUpPCCLZXKDz9Lb9Dr-94" value="" style="edgeStyle=none;orthogonalLoop=1;jettySize=auto;html=1;rounded=0;entryX=0.5;entryY=1;entryDx=0;entryDy=0;exitX=0.501;exitY=0.101;exitDx=0;exitDy=0;exitPerimeter=0;" edge="1" parent="1" source="0sXUpPCCLZXKDz9Lb9Dr-105" target="0sXUpPCCLZXKDz9Lb9Dr-93">
          <mxGeometry width="80" relative="1" as="geometry">
            <mxPoint x="1709.9399999999996" y="264" as="sourcePoint" />
            <mxPoint x="1589.9399999999996" y="149.5" as="targetPoint" />
            <Array as="points" />
          </mxGeometry>
        </mxCell>
        <mxCell id="0sXUpPCCLZXKDz9Lb9Dr-95" value="" style="whiteSpace=wrap;html=1;" vertex="1" parent="1">
          <mxGeometry x="1689.9399999999996" y="50" width="40" height="30" as="geometry" />
        </mxCell>
        <mxCell id="0sXUpPCCLZXKDz9Lb9Dr-96" value="" style="whiteSpace=wrap;html=1;" vertex="1" parent="1">
          <mxGeometry x="1669.9399999999996" y="-10" width="80" height="10" as="geometry" />
        </mxCell>
        <mxCell id="0sXUpPCCLZXKDz9Lb9Dr-97" value="" style="edgeStyle=none;orthogonalLoop=1;jettySize=auto;html=1;rounded=0;" edge="1" parent="1" target="0sXUpPCCLZXKDz9Lb9Dr-98">
          <mxGeometry width="80" relative="1" as="geometry">
            <mxPoint x="1749.9399999999996" y="-20" as="sourcePoint" />
            <mxPoint x="1749.9399999999996" y="-50" as="targetPoint" />
            <Array as="points" />
          </mxGeometry>
        </mxCell>
        <mxCell id="0sXUpPCCLZXKDz9Lb9Dr-98" value="" style="whiteSpace=wrap;html=1;" vertex="1" parent="1">
          <mxGeometry x="1659.9399999999996" y="-30" width="100" height="80" as="geometry" />
        </mxCell>
        <mxCell id="0sXUpPCCLZXKDz9Lb9Dr-99" value="" style="edgeStyle=none;orthogonalLoop=1;jettySize=auto;html=1;rounded=0;shape=link;" edge="1" parent="1">
          <mxGeometry width="80" relative="1" as="geometry">
            <mxPoint x="1669.9399999999996" y="-30" as="sourcePoint" />
            <mxPoint x="1669.9399999999996" y="-50" as="targetPoint" />
            <Array as="points" />
          </mxGeometry>
        </mxCell>
        <mxCell id="0sXUpPCCLZXKDz9Lb9Dr-100" value="" style="edgeStyle=none;orthogonalLoop=1;jettySize=auto;html=1;rounded=0;shape=link;" edge="1" parent="1">
          <mxGeometry width="80" relative="1" as="geometry">
            <mxPoint x="1749.9399999999996" y="-30" as="sourcePoint" />
            <mxPoint x="1749.9399999999996" y="-50" as="targetPoint" />
            <Array as="points" />
          </mxGeometry>
        </mxCell>
        <mxCell id="0sXUpPCCLZXKDz9Lb9Dr-101" value="" style="whiteSpace=wrap;html=1;" vertex="1" parent="1">
          <mxGeometry x="1669.9399999999996" y="-20" width="80" height="40" as="geometry" />
        </mxCell>
        <mxCell id="0sXUpPCCLZXKDz9Lb9Dr-102" value="" style="shape=image;imageAspect=0;aspect=fixed;verticalLabelPosition=bottom;verticalAlign=top;image=https://www.pngall.com/wp-content/uploads/12/Gears-PNG-Image-HD.png;" vertex="1" parent="1">
          <mxGeometry x="1659.08" y="90" width="100.86" height="90" as="geometry" />
        </mxCell>
        <mxCell id="0sXUpPCCLZXKDz9Lb9Dr-103" value="&lt;font style=&quot;font-size: 16px;&quot; face=&quot;Helvetica&quot;&gt;&lt;b&gt;Training&lt;/b&gt;&lt;/font&gt;" style="whiteSpace=wrap;html=1;" vertex="1" parent="1">
          <mxGeometry x="1599.7199999999993" y="190" width="220.43" height="30" as="geometry" />
        </mxCell>
        <mxCell id="0sXUpPCCLZXKDz9Lb9Dr-104" value="" style="shape=table;startSize=0;container=1;collapsible=0;childLayout=tableLayout;fontSize=14;align=left;fontStyle=0" vertex="1" parent="1">
          <mxGeometry x="1560" y="270" width="299.8700000000001" height="115" as="geometry" />
        </mxCell>
        <mxCell id="0sXUpPCCLZXKDz9Lb9Dr-105" value="" style="shape=tableRow;horizontal=0;startSize=0;swimlaneHead=0;swimlaneBody=0;strokeColor=inherit;top=0;left=0;bottom=0;right=0;collapsible=0;dropTarget=0;fillColor=none;points=[[0,0.5],[1,0.5]];portConstraint=eastwest;fontSize=14;fontStyle=1;align=left;" vertex="1" parent="0sXUpPCCLZXKDz9Lb9Dr-104">
          <mxGeometry width="299.8700000000001" height="40" as="geometry" />
        </mxCell>
        <mxCell id="0sXUpPCCLZXKDz9Lb9Dr-106" value="Gemessene Daten" style="shape=partialRectangle;html=1;whiteSpace=wrap;connectable=0;strokeColor=inherit;overflow=hidden;fillColor=none;top=0;left=0;bottom=0;right=0;pointerEvents=1;fontSize=14;align=left;fontStyle=1" vertex="1" parent="0sXUpPCCLZXKDz9Lb9Dr-105">
          <mxGeometry width="100" height="40" as="geometry">
            <mxRectangle width="100" height="40" as="alternateBounds" />
          </mxGeometry>
        </mxCell>
        <mxCell id="0sXUpPCCLZXKDz9Lb9Dr-107" value="Größe (cm)" style="shape=partialRectangle;html=1;whiteSpace=wrap;connectable=0;strokeColor=inherit;overflow=hidden;fillColor=none;top=0;left=0;bottom=0;right=0;pointerEvents=1;fontSize=14;align=left;fontStyle=1" vertex="1" parent="0sXUpPCCLZXKDz9Lb9Dr-105">
          <mxGeometry x="100" width="60" height="40" as="geometry">
            <mxRectangle width="60" height="40" as="alternateBounds" />
          </mxGeometry>
        </mxCell>
        <mxCell id="0sXUpPCCLZXKDz9Lb9Dr-108" value="&lt;font style=&quot;font-size: 14px;&quot;&gt;Geschwindigkeit&lt;/font&gt;&lt;div style=&quot;font-size: 14px;&quot;&gt;&lt;font style=&quot;font-size: 14px;&quot;&gt;(km/h)&lt;/font&gt;&lt;/div&gt;" style="shape=partialRectangle;html=1;whiteSpace=wrap;connectable=0;strokeColor=inherit;overflow=hidden;fillColor=none;top=0;left=0;bottom=0;right=0;pointerEvents=1;fontSize=14;align=left;fontStyle=1" vertex="1" parent="0sXUpPCCLZXKDz9Lb9Dr-105">
          <mxGeometry x="160" width="140" height="40" as="geometry">
            <mxRectangle width="140" height="40" as="alternateBounds" />
          </mxGeometry>
        </mxCell>
        <mxCell id="0sXUpPCCLZXKDz9Lb9Dr-109" value="" style="shape=tableRow;horizontal=0;startSize=0;swimlaneHead=0;swimlaneBody=0;strokeColor=inherit;top=0;left=0;bottom=0;right=0;collapsible=0;dropTarget=0;fillColor=none;points=[[0,0.5],[1,0.5]];portConstraint=eastwest;fontSize=14;align=left;fontStyle=0" vertex="1" parent="0sXUpPCCLZXKDz9Lb9Dr-104">
          <mxGeometry y="40" width="299.8700000000001" height="25" as="geometry" />
        </mxCell>
        <mxCell id="0sXUpPCCLZXKDz9Lb9Dr-110" value="Hans" style="shape=partialRectangle;html=1;whiteSpace=wrap;connectable=0;strokeColor=inherit;overflow=hidden;fillColor=none;top=0;left=0;bottom=0;right=0;pointerEvents=1;fontSize=14;align=left;fontStyle=0" vertex="1" parent="0sXUpPCCLZXKDz9Lb9Dr-109">
          <mxGeometry width="100" height="25" as="geometry">
            <mxRectangle width="100" height="25" as="alternateBounds" />
          </mxGeometry>
        </mxCell>
        <mxCell id="0sXUpPCCLZXKDz9Lb9Dr-111" value="128,4" style="shape=partialRectangle;html=1;whiteSpace=wrap;connectable=0;strokeColor=inherit;overflow=hidden;fillColor=none;top=0;left=0;bottom=0;right=0;pointerEvents=1;fontSize=14;align=left;fontStyle=0" vertex="1" parent="0sXUpPCCLZXKDz9Lb9Dr-109">
          <mxGeometry x="100" width="60" height="25" as="geometry">
            <mxRectangle width="60" height="25" as="alternateBounds" />
          </mxGeometry>
        </mxCell>
        <mxCell id="0sXUpPCCLZXKDz9Lb9Dr-112" value="13,7" style="shape=partialRectangle;html=1;whiteSpace=wrap;connectable=0;strokeColor=inherit;overflow=hidden;fillColor=none;top=0;left=0;bottom=0;right=0;pointerEvents=1;fontSize=14;align=left;fontStyle=0" vertex="1" parent="0sXUpPCCLZXKDz9Lb9Dr-109">
          <mxGeometry x="160" width="140" height="25" as="geometry">
            <mxRectangle width="140" height="25" as="alternateBounds" />
          </mxGeometry>
        </mxCell>
        <mxCell id="0sXUpPCCLZXKDz9Lb9Dr-113" value="" style="shape=tableRow;horizontal=0;startSize=0;swimlaneHead=0;swimlaneBody=0;strokeColor=inherit;top=0;left=0;bottom=0;right=0;collapsible=0;dropTarget=0;fillColor=none;points=[[0,0.5],[1,0.5]];portConstraint=eastwest;fontSize=14;align=left;fontStyle=0" vertex="1" parent="0sXUpPCCLZXKDz9Lb9Dr-104">
          <mxGeometry y="65" width="299.8700000000001" height="25" as="geometry" />
        </mxCell>
        <mxCell id="0sXUpPCCLZXKDz9Lb9Dr-114" value="Laura" style="shape=partialRectangle;html=1;whiteSpace=wrap;connectable=0;strokeColor=inherit;overflow=hidden;fillColor=none;top=0;left=0;bottom=0;right=0;pointerEvents=1;fontSize=14;align=left;fontStyle=0" vertex="1" parent="0sXUpPCCLZXKDz9Lb9Dr-113">
          <mxGeometry width="100" height="25" as="geometry">
            <mxRectangle width="100" height="25" as="alternateBounds" />
          </mxGeometry>
        </mxCell>
        <mxCell id="0sXUpPCCLZXKDz9Lb9Dr-115" value="139,5" style="shape=partialRectangle;html=1;whiteSpace=wrap;connectable=0;strokeColor=inherit;overflow=hidden;fillColor=none;top=0;left=0;bottom=0;right=0;pointerEvents=1;fontSize=14;align=left;fontStyle=0" vertex="1" parent="0sXUpPCCLZXKDz9Lb9Dr-113">
          <mxGeometry x="100" width="60" height="25" as="geometry">
            <mxRectangle width="60" height="25" as="alternateBounds" />
          </mxGeometry>
        </mxCell>
        <mxCell id="0sXUpPCCLZXKDz9Lb9Dr-116" value="21,0" style="shape=partialRectangle;html=1;whiteSpace=wrap;connectable=0;strokeColor=inherit;overflow=hidden;fillColor=none;top=0;left=0;bottom=0;right=0;pointerEvents=1;fontSize=14;align=left;fontStyle=0" vertex="1" parent="0sXUpPCCLZXKDz9Lb9Dr-113">
          <mxGeometry x="160" width="140" height="25" as="geometry">
            <mxRectangle width="140" height="25" as="alternateBounds" />
          </mxGeometry>
        </mxCell>
        <mxCell id="0sXUpPCCLZXKDz9Lb9Dr-117" style="shape=tableRow;horizontal=0;startSize=0;swimlaneHead=0;swimlaneBody=0;strokeColor=inherit;top=0;left=0;bottom=0;right=0;collapsible=0;dropTarget=0;fillColor=none;points=[[0,0.5],[1,0.5]];portConstraint=eastwest;fontSize=14;align=left;fontStyle=0" vertex="1" parent="0sXUpPCCLZXKDz9Lb9Dr-104">
          <mxGeometry y="90" width="299.8700000000001" height="25" as="geometry" />
        </mxCell>
        <mxCell id="0sXUpPCCLZXKDz9Lb9Dr-118" value="..." style="shape=partialRectangle;html=1;whiteSpace=wrap;connectable=0;strokeColor=inherit;overflow=hidden;fillColor=none;top=0;left=0;bottom=0;right=0;pointerEvents=1;fontSize=14;align=left;fontStyle=0" vertex="1" parent="0sXUpPCCLZXKDz9Lb9Dr-117">
          <mxGeometry width="100" height="25" as="geometry">
            <mxRectangle width="100" height="25" as="alternateBounds" />
          </mxGeometry>
        </mxCell>
        <mxCell id="0sXUpPCCLZXKDz9Lb9Dr-119" value="...." style="shape=partialRectangle;html=1;whiteSpace=wrap;connectable=0;strokeColor=inherit;overflow=hidden;fillColor=none;top=0;left=0;bottom=0;right=0;pointerEvents=1;fontSize=14;align=left;fontStyle=0" vertex="1" parent="0sXUpPCCLZXKDz9Lb9Dr-117">
          <mxGeometry x="100" width="60" height="25" as="geometry">
            <mxRectangle width="60" height="25" as="alternateBounds" />
          </mxGeometry>
        </mxCell>
        <mxCell id="0sXUpPCCLZXKDz9Lb9Dr-120" value="..." style="shape=partialRectangle;html=1;whiteSpace=wrap;connectable=0;strokeColor=inherit;overflow=hidden;fillColor=none;top=0;left=0;bottom=0;right=0;pointerEvents=1;fontSize=14;align=left;fontStyle=0" vertex="1" parent="0sXUpPCCLZXKDz9Lb9Dr-117">
          <mxGeometry x="160" width="140" height="25" as="geometry">
            <mxRectangle width="140" height="25" as="alternateBounds" />
          </mxGeometry>
        </mxCell>
      </root>
    </mxGraphModel>
  </diagram>
</mxfile>
